<?xml version="1.0" encoding="utf-8"?>
<!-- Generator: Adobe Illustrator 28.0.0, SVG Export Plug-In . SVG Version: 6.00 Build 0)  -->
<svg version="1.1" id="Layer_1" xmlns="http://www.w3.org/2000/svg" xmlns:xlink="http://www.w3.org/1999/xlink" x="0px" y="0px"
	 viewBox="0 0 600 600" style="enable-background:new 0 0 600 600;" xml:space="preserve">
<style type="text/css">
	.st0{fill:#636464;}
	.st1{clip-path:url(#SVGID_00000083074613400858254820000005258372408626853274_);}
	.st2{fill:#FFFFFF;stroke:#000000;stroke-miterlimit:10;}
	.st3{fill:none;stroke:#000000;stroke-miterlimit:10;}
	.st4{fill:#5B6163;}
	
		.st5{clip-path:url(#SVGID_00000175308381118839736610000007539027805580429703_);fill:#B9C0C6;stroke:#000000;stroke-miterlimit:10;}
	
		.st6{clip-path:url(#SVGID_00000168814054324268618930000003299517672381331591_);fill:#B9C0C6;stroke:#000000;stroke-miterlimit:10;}
	
		.st7{clip-path:url(#SVGID_00000166656123709289964540000017386578318029952658_);fill:#B9C0C6;stroke:#000000;stroke-miterlimit:10;}
	
		.st8{clip-path:url(#SVGID_00000095322868190941055550000009669625207629045668_);fill:#B9C0C6;stroke:#000000;stroke-miterlimit:10;}
	
		.st9{clip-path:url(#SVGID_00000052785823110944466440000008115156811091965059_);fill:#B9C0C6;stroke:#000000;stroke-miterlimit:10;}
	
		.st10{clip-path:url(#SVGID_00000158716178277259486940000017661598857311125680_);fill:#B9C0C6;stroke:#000000;stroke-miterlimit:10;}
	
		.st11{clip-path:url(#SVGID_00000169554601240118177650000002198230507641418430_);fill:#B9C0C6;stroke:#000000;stroke-miterlimit:10;}
	
		.st12{clip-path:url(#SVGID_00000109725233446697246650000005128185029707505062_);fill:#B9C0C6;stroke:#000000;stroke-miterlimit:10;}
	
		.st13{clip-path:url(#SVGID_00000164482902809506601340000009634288778276816310_);fill:#B9C0C6;stroke:#000000;stroke-miterlimit:10;}
	
		.st14{clip-path:url(#SVGID_00000167366890149230868570000014620298428459176329_);fill:#B9C0C6;stroke:#000000;stroke-miterlimit:10;}
	
		.st15{clip-path:url(#SVGID_00000022537885557932972980000009723309546136482963_);fill:#B9C0C6;stroke:#000000;stroke-miterlimit:10;}
	.st16{fill:#BE952E;}
	.st17{fill:#D3AB3A;}
	.st18{fill:#CEB29F;}
	.st19{fill:#514E4D;}
	.st20{fill:#9B4C23;}
	.st21{fill:#B57755;}
</style>
<circle class="st0" cx="289.08" cy="320.19" r="272.99"/>
<g>
	<defs>
		<path id="SVGID_1_" d="M635.21,79.72L439.4-8.32L16.09,47.2l15.34,182.61c-9.92,28.29-15.34,58.7-15.34,90.38
			c0,150.77,122.22,272.99,272.99,272.99s272.99-122.22,272.99-272.99c0-16.39-1.45-32.44-4.22-48.03L635.21,79.72z"/>
	</defs>
	<clipPath id="SVGID_00000012471177773238355310000002021006469299382940_">
		<use xlink:href="#SVGID_1_"  style="overflow:visible;"/>
	</clipPath>
	<g style="clip-path:url(#SVGID_00000012471177773238355310000002021006469299382940_);">
		<g>
			
				<rect x="59.45" y="70.92" transform="matrix(0.992 -0.1262 0.1262 0.992 -38.3074 34.0896)" class="st2" width="380.91" height="496.94"/>
			
				<rect x="82.74" y="47.91" transform="matrix(0.992 -0.1262 0.1262 0.992 -35.2175 36.8445)" class="st2" width="380.91" height="496.94"/>
			<polygon class="st2" points="470.19,541.84 493.48,518.83 115.61,566.9 52.9,73.93 29.61,96.94 92.33,589.91 			"/>
			<path class="st2" d="M52.9,73.93l53.76,422.6c0,0,14.44,43.19,45.35,52.5l366.85-41.74c0,0-28.43-27.47-37.9-86.91L430.76,25.86
				L52.9,73.93z"/>
			<g>
				<polyline class="st3" points="48.75,77.72 111.75,572.92 486.59,525.24 				"/>
				<polyline class="st3" points="44.89,82.32 107.84,577.17 482.24,529.54 				"/>
				<polyline class="st3" points="41.22,85.87 104.09,580.07 479.37,532.33 				"/>
				<polyline class="st3" points="37.56,89.42 100.39,583.28 476.42,535.44 				"/>
				<polyline class="st3" points="33.86,92.63 96.75,586.99 472.89,539.14 				"/>
			</g>
			<g>
				<g>
					<circle class="st4" cx="405.73" cy="62.52" r="10.45"/>
					<g>
						<defs>
							<path id="SVGID_00000078761734964414898800000004158729712008221332_" d="M395.42,64.28c0,0,0.56,2.89,1.82,4.33l29.8-3.79
								l-7.53-59.22l-58.24,7.41l2.71,21.34l12.62-1.61L395.42,64.28z"/>
						</defs>
						<clipPath id="SVGID_00000097463240020198398720000011429188277397823140_">
							<use xlink:href="#SVGID_00000078761734964414898800000004158729712008221332_"  style="overflow:visible;"/>
						</clipPath>
						
							<path style="clip-path:url(#SVGID_00000097463240020198398720000011429188277397823140_);fill:#B9C0C6;stroke:#000000;stroke-miterlimit:10;" d="
							M389.03,13.99c-15.02,1.91-25.64,15.63-23.73,30.65c1.91,15.02,15.63,25.64,30.65,23.73c15.02-1.91,25.64-15.63,23.73-30.65
							C417.77,22.71,404.04,12.08,389.03,13.99z M395.42,64.28c-12.76,1.62-24.41-7.4-26.04-20.16
							c-1.62-12.76,7.4-24.41,20.16-26.04c12.76-1.62,24.41,7.4,26.04,20.16C417.21,51,408.18,62.66,395.42,64.28z"/>
					</g>
				</g>
				<g>
					<circle class="st4" cx="374.69" cy="66.47" r="10.45"/>
					<g>
						<defs>
							<path id="SVGID_00000139281379014327787760000005942119743768167353_" d="M364.38,68.23c0,0,0.56,2.89,1.82,4.33l29.8-3.79
								l-7.53-59.22l-58.24,7.41l2.71,21.34l12.62-1.61L364.38,68.23z"/>
						</defs>
						<clipPath id="SVGID_00000096021811913116840350000013664078551042098363_">
							<use xlink:href="#SVGID_00000139281379014327787760000005942119743768167353_"  style="overflow:visible;"/>
						</clipPath>
						
							<path style="clip-path:url(#SVGID_00000096021811913116840350000013664078551042098363_);fill:#B9C0C6;stroke:#000000;stroke-miterlimit:10;" d="
							M357.98,17.94c-15.02,1.91-25.64,15.63-23.73,30.65c1.91,15.02,15.63,25.64,30.65,23.73c15.02-1.91,25.64-15.63,23.73-30.65
							C386.72,26.66,373,16.03,357.98,17.94z M364.38,68.23c-12.76,1.62-24.41-7.4-26.04-20.16c-1.62-12.76,7.4-24.41,20.16-26.04
							c12.76-1.62,24.41,7.4,26.04,20.16C386.16,54.95,377.13,66.61,364.38,68.23z"/>
					</g>
				</g>
				<g>
					<circle class="st4" cx="343.64" cy="70.42" r="10.45"/>
					<g>
						<defs>
							<path id="SVGID_00000131338152715251336290000017078308266478534272_" d="M333.33,72.18c0,0,0.56,2.89,1.82,4.33l29.8-3.79
								l-7.53-59.22l-58.24,7.41l2.71,21.34l12.62-1.61L333.33,72.18z"/>
						</defs>
						<clipPath id="SVGID_00000036226234593432375030000015732958011527464380_">
							<use xlink:href="#SVGID_00000131338152715251336290000017078308266478534272_"  style="overflow:visible;"/>
						</clipPath>
						
							<path style="clip-path:url(#SVGID_00000036226234593432375030000015732958011527464380_);fill:#B9C0C6;stroke:#000000;stroke-miterlimit:10;" d="
							M326.94,21.89c-15.02,1.91-25.64,15.63-23.73,30.65c1.91,15.02,15.63,25.64,30.65,23.73c15.02-1.91,25.64-15.63,23.73-30.65
							C355.68,30.61,341.95,19.98,326.94,21.89z M333.33,72.18c-12.76,1.62-24.41-7.4-26.04-20.16
							c-1.62-12.76,7.4-24.41,20.16-26.04c12.76-1.62,24.41,7.4,26.04,20.16C355.11,58.9,346.09,70.56,333.33,72.18z"/>
					</g>
				</g>
				<g>
					<circle class="st4" cx="312.59" cy="74.37" r="10.45"/>
					<g>
						<defs>
							<path id="SVGID_00000103228016488626078100000017200115630429123260_" d="M302.29,76.13c0,0,0.56,2.89,1.82,4.33l29.8-3.79
								l-7.53-59.22l-58.24,7.41l2.71,21.34l12.62-1.61L302.29,76.13z"/>
						</defs>
						<clipPath id="SVGID_00000145756071667212181490000000922460557454762670_">
							<use xlink:href="#SVGID_00000103228016488626078100000017200115630429123260_"  style="overflow:visible;"/>
						</clipPath>
						
							<path style="clip-path:url(#SVGID_00000145756071667212181490000000922460557454762670_);fill:#B9C0C6;stroke:#000000;stroke-miterlimit:10;" d="
							M295.89,25.84c-15.02,1.91-25.64,15.63-23.73,30.65c1.91,15.02,15.63,25.64,30.65,23.73c15.02-1.91,25.64-15.63,23.73-30.65
							C324.63,34.56,310.91,23.93,295.89,25.84z M302.29,76.13c-12.76,1.62-24.41-7.4-26.04-20.16
							c-1.62-12.76,7.4-24.41,20.16-26.04c12.76-1.62,24.41,7.4,26.04,20.16C324.07,62.85,315.04,74.51,302.29,76.13z"/>
					</g>
				</g>
				<g>
					<circle class="st4" cx="281.55" cy="78.32" r="10.45"/>
					<g>
						<defs>
							<path id="SVGID_00000067958292006937223990000003783009251941185669_" d="M271.24,80.08c0,0,0.56,2.89,1.82,4.33l29.8-3.79
								l-7.53-59.22l-58.24,7.41l2.71,21.34l12.62-1.61L271.24,80.08z"/>
						</defs>
						<clipPath id="SVGID_00000150823766458926650720000005671364960578872251_">
							<use xlink:href="#SVGID_00000067958292006937223990000003783009251941185669_"  style="overflow:visible;"/>
						</clipPath>
						
							<path style="clip-path:url(#SVGID_00000150823766458926650720000005671364960578872251_);fill:#B9C0C6;stroke:#000000;stroke-miterlimit:10;" d="
							M264.84,29.79c-15.02,1.91-25.64,15.63-23.73,30.65c1.91,15.02,15.63,25.64,30.65,23.73c15.02-1.91,25.64-15.63,23.73-30.65
							C293.58,38.51,279.86,27.88,264.84,29.79z M271.24,80.08c-12.76,1.62-24.41-7.4-26.04-20.16s7.4-24.41,20.16-26.04
							c12.76-1.62,24.41,7.4,26.04,20.16C293.02,66.8,284,78.46,271.24,80.08z"/>
					</g>
				</g>
				<g>
					<circle class="st4" cx="250.5" cy="82.27" r="10.45"/>
					<g>
						<defs>
							<path id="SVGID_00000029755640982296402110000003570955984071187109_" d="M240.2,84.03c0,0,0.56,2.89,1.82,4.33l29.8-3.79
								l-7.53-59.22l-58.24,7.41l2.71,21.34l12.62-1.61L240.2,84.03z"/>
						</defs>
						<clipPath id="SVGID_00000145052719785833532720000008602446955612150940_">
							<use xlink:href="#SVGID_00000029755640982296402110000003570955984071187109_"  style="overflow:visible;"/>
						</clipPath>
						
							<path style="clip-path:url(#SVGID_00000145052719785833532720000008602446955612150940_);fill:#B9C0C6;stroke:#000000;stroke-miterlimit:10;" d="
							M233.8,33.74c-15.02,1.91-25.64,15.63-23.73,30.65c1.91,15.02,15.63,25.64,30.65,23.73c15.02-1.91,25.64-15.63,23.73-30.65
							C262.54,42.46,248.82,31.83,233.8,33.74z M240.2,84.03c-12.76,1.62-24.41-7.4-26.04-20.16s7.4-24.41,20.16-26.04
							c12.76-1.62,24.41,7.4,26.04,20.16C261.98,70.75,252.95,82.41,240.2,84.03z"/>
					</g>
				</g>
				<g>
					<circle class="st4" cx="219.46" cy="86.22" r="10.45"/>
					<g>
						<defs>
							<path id="SVGID_00000044179413273815225830000008085664354119561862_" d="M209.15,87.98c0,0,0.56,2.89,1.82,4.33l29.8-3.79
								l-7.53-59.22L175,36.71l2.71,21.34l12.62-1.61L209.15,87.98z"/>
						</defs>
						<clipPath id="SVGID_00000170969515161414105920000000342501301109488790_">
							<use xlink:href="#SVGID_00000044179413273815225830000008085664354119561862_"  style="overflow:visible;"/>
						</clipPath>
						
							<path style="clip-path:url(#SVGID_00000170969515161414105920000000342501301109488790_);fill:#B9C0C6;stroke:#000000;stroke-miterlimit:10;" d="
							M202.75,37.69c-15.02,1.91-25.64,15.63-23.73,30.65c1.91,15.02,15.63,25.64,30.65,23.73c15.02-1.91,25.64-15.63,23.73-30.65
							C231.49,46.4,217.77,35.78,202.75,37.69z M209.15,87.98c-12.76,1.62-24.41-7.4-26.04-20.16s7.4-24.41,20.16-26.04
							c12.76-1.62,24.41,7.4,26.04,20.16C230.93,74.7,221.91,86.36,209.15,87.98z"/>
					</g>
				</g>
				<g>
					<circle class="st4" cx="188.41" cy="90.17" r="10.45"/>
					<g>
						<defs>
							<path id="SVGID_00000127014807383486139500000009085558238440037766_" d="M178.1,91.93c0,0,0.56,2.89,1.82,4.33l29.8-3.79
								l-7.53-59.22l-58.24,7.41L146.67,62l12.62-1.61L178.1,91.93z"/>
						</defs>
						<clipPath id="SVGID_00000167365967145373875360000016865604966801374381_">
							<use xlink:href="#SVGID_00000127014807383486139500000009085558238440037766_"  style="overflow:visible;"/>
						</clipPath>
						
							<path style="clip-path:url(#SVGID_00000167365967145373875360000016865604966801374381_);fill:#B9C0C6;stroke:#000000;stroke-miterlimit:10;" d="
							M171.71,41.64c-15.02,1.91-25.64,15.63-23.73,30.65c1.91,15.02,15.63,25.64,30.65,23.73c15.02-1.91,25.64-15.63,23.73-30.65
							C200.45,50.35,186.72,39.73,171.71,41.64z M178.1,91.93c-12.76,1.62-24.41-7.4-26.04-20.16s7.4-24.41,20.16-26.04
							c12.76-1.62,24.41,7.4,26.04,20.16S190.86,90.31,178.1,91.93z"/>
					</g>
				</g>
				<g>
					<circle class="st4" cx="157.37" cy="94.11" r="10.45"/>
					<g>
						<defs>
							<path id="SVGID_00000160889501837491381070000014898538605145375921_" d="M147.06,95.88c0,0,0.56,2.89,1.82,4.33l29.8-3.79
								l-7.53-59.22l-58.24,7.41l2.71,21.34l12.62-1.61L147.06,95.88z"/>
						</defs>
						<clipPath id="SVGID_00000041281721908733945320000011175810428274749850_">
							<use xlink:href="#SVGID_00000160889501837491381070000014898538605145375921_"  style="overflow:visible;"/>
						</clipPath>
						
							<path style="clip-path:url(#SVGID_00000041281721908733945320000011175810428274749850_);fill:#B9C0C6;stroke:#000000;stroke-miterlimit:10;" d="
							M140.66,45.59c-15.02,1.91-25.64,15.63-23.73,30.65c1.91,15.02,15.63,25.64,30.65,23.73c15.02-1.91,25.64-15.63,23.73-30.65
							C169.4,54.3,155.68,43.68,140.66,45.59z M147.06,95.88c-12.76,1.62-24.41-7.4-26.04-20.16c-1.62-12.76,7.4-24.41,20.16-26.04
							c12.76-1.62,24.41,7.4,26.04,20.16S159.81,94.25,147.06,95.88z"/>
					</g>
				</g>
				<g>
					<circle class="st4" cx="126.32" cy="98.06" r="10.45"/>
					<g>
						<defs>
							<path id="SVGID_00000010292991853745255970000017415450222500068224_" d="M116.01,99.83c0,0,0.56,2.89,1.82,4.33l29.8-3.79
								l-7.53-59.22l-58.24,7.41l2.71,21.34l12.62-1.61L116.01,99.83z"/>
						</defs>
						<clipPath id="SVGID_00000018231563438355339640000015530060672180655014_">
							<use xlink:href="#SVGID_00000010292991853745255970000017415450222500068224_"  style="overflow:visible;"/>
						</clipPath>
						
							<path style="clip-path:url(#SVGID_00000018231563438355339640000015530060672180655014_);fill:#B9C0C6;stroke:#000000;stroke-miterlimit:10;" d="
							M109.62,49.54C94.6,51.45,83.97,65.17,85.88,80.19c1.91,15.02,15.63,25.64,30.65,23.73c15.02-1.91,25.64-15.63,23.73-30.65
							C138.36,58.25,124.63,47.63,109.62,49.54z M116.01,99.83c-12.76,1.62-24.41-7.4-26.04-20.16
							c-1.62-12.76,7.4-24.41,20.16-26.04c12.76-1.62,24.41,7.4,26.04,20.16S128.77,98.2,116.01,99.83z"/>
					</g>
				</g>
				<g>
					<circle class="st4" cx="95.28" cy="102.01" r="10.45"/>
					<g>
						<defs>
							<path id="SVGID_00000067231050799954499100000000265982395799969210_" d="M84.97,103.78c0,0,0.56,2.89,1.82,4.33l29.8-3.79
								l-7.53-59.22l-58.24,7.41l2.71,21.34l12.62-1.61L84.97,103.78z"/>
						</defs>
						<clipPath id="SVGID_00000157307553534578019040000012681960492547513997_">
							<use xlink:href="#SVGID_00000067231050799954499100000000265982395799969210_"  style="overflow:visible;"/>
						</clipPath>
						
							<path style="clip-path:url(#SVGID_00000157307553534578019040000012681960492547513997_);fill:#B9C0C6;stroke:#000000;stroke-miterlimit:10;" d="
							M78.57,53.49C63.55,55.4,52.93,69.12,54.84,84.14c1.91,15.02,15.63,25.64,30.65,23.73c15.02-1.91,25.64-15.63,23.73-30.65
							C107.31,62.2,93.59,51.58,78.57,53.49z M84.97,103.78c-12.76,1.62-24.41-7.4-26.04-20.16c-1.62-12.76,7.4-24.41,20.16-26.04
							c12.76-1.62,24.41,7.4,26.04,20.16S97.72,102.15,84.97,103.78z"/>
					</g>
				</g>
			</g>
		</g>
		<g>
			<g>
				<path d="M140.96,278.98c2.44,12.6,5.43,25.26,7.2,38.03c0.57,5.14-1.66,10.61-3.09,15.69c-0.37,1.41-2.56,2.72-4.13,2.92
					c-2.54,0.64-5.14,0.34-7.73,0.05c-4.09-0.49-6.36-2.37-8.32-6.6c-4.97-10.46-4.71-21.66-7.43-32.5
					c-2.76-11.01-4.17-22.36-6.76-33.42c-2.56-11.63-3.96-22.98-3.67-34.76c0.1-6.07,0.08-11.16,5.14-14.69
					c2.91-2.05,5.7-3.13,8.96-0.92c6.21,3.92,12.17,8.28,18.54,12.15c11.43,6.76,22.93,13.13,34.43,19.49
					c1.24,0.63,3.83,0.17,4.49-0.75c5.02-7.3,9.82-14.73,14.4-22.3c1.92-3.12,3.11-7.01,4.77-10.45c3.15-6.83,6.34-13.48,9.71-20.18
					c0.83-1.72,1.66-3.44,2.75-4.84c6.29-7.24,18-5.08,21.64,4.39c3.29,8.8,5.9,17.78,8,26.88c3.4,15,6.25,29.96,9.32,45.05
					c1.57,6.97,3.65,13.81,3.98,20.9c0.23,5.23-1.28,10.7-2.88,15.82c-1.03,3.09-4.43,3.19-8.08,2.97c-9.31-0.5-12.56-1.95-15-10.96
					c-3.01-10.57-5.22-21.53-7.6-32.45c-2.46-10.52-4.62-21.31-6.91-31.87c-0.09-0.36-0.69-0.58-1.76-1.26
					c-1.17,1.8-2.51,3.65-3.29,5.55c-4.34,10.72-11.72,19.36-17.26,28.87c-0.62,1.1-1.8,2.15-1.87,3.3
					c-0.34,7.26-7.02,6.48-11.16,8.65c-0.97,0.43-2.98-0.39-4.43-1.15c-7.91-4.24-15.65-8.53-23.39-12.82
					c-4.19-2.35-8.2-3.23-13.37-2.31C137.85,263.71,139.42,271.44,140.96,278.98z"/>
				<path d="M250.49,259.19c0.61-9.43,1.56-18.72,2-28.23c0.29-7.33-0.13-14.67-0.09-21.9c0.08-6.4,0.51-12.65,0.76-18.97
					c0.11-1.18,0.15-2.18,0.02-3.26c-0.58-4.45,1.37-7.46,3.76-10.08c2.24-2.28,5.07-1.53,7.73-0.15c4.33,2.43,8.47,5.09,12.68,7.57
					c4.77,2.83,9.66,5.62,14.36,8.62c3.92,2.45,7.76,5.08,11.6,7.7c5.57,3.8,11.39,6.79,17.52,9.1c7.74,2.82,14.39,8.33,21.64,12.47
					c1.85,1.13,2.53,3.27,2.43,5.57c-0.17,1.76-0.22,3.48-0.39,5.24c-0.34,3.53-0.66,3.79-3.87,3.9c-1.13,0.01-2.5,0.12-3.18,0.94
					c-1.74,2.09-3.54,1.08-5.4-0.04c-1.73-1.17-3.58-2.3-5.23-3.65c-4.56-3.76-9.59-5.79-14.74-7.77c-1.54-0.68-2.32-0.52-3.25,1.11
					c-2.08,3.78-5.11,6.21-9.46,7.04c-2.48,0.53-4.88,2.02-7.35,2.97c-3.03,1.31-6.11,2.5-9.27,3.85c-1.6,0.62-3.23,1.53-4.91,2.32
					c-1.73,0.66-3.33,1.28-5.15,1.7c-3.89,0.93-5.11,2.53-5.07,7.05c-0.06,3.14,0.04,6.35,0.27,9.52c0.21,2.75-0.9,5.02-2.56,6.22
					c-2.3,1.74-4.92,3.03-7.48,3.73c-2.98,0.72-4.96-1.49-6.67-5.92C250.95,263.68,250.34,261.37,250.49,259.19z M274.65,228.23
					c0.64-0.53,1.12-1.14,1.69-1.5c5.62-2.31,11.29-4.49,17.03-6.85c0.74-0.28,1.34-0.94,2.03-1.35c-0.83-0.67-1.38-1.73-2.28-2.24
					c-4.29-2.31-8.57-4.62-12.94-6.76c-2.31-1.23-4.58-2.34-7.05-3.23c-2.76-0.92-3.36-0.26-3.52,2.63
					c-0.2,3.9-0.44,7.67-0.52,11.52c-0.13,2.6-0.26,5.2-0.1,7.82c0.04,0.83,1.2,1.66,1.83,2.55
					C272.38,229.67,273.52,228.95,274.65,228.23z"/>
				<path d="M334.96,203.94c-2.62-6.07-4.87-12.27-7.41-18.51c-2.12-5.13-4.48-10.16-6.47-15.34c-2.15-5.96,1.7-12.12,8.16-12.62
					c3.41-0.32,6.45-1.63,9.48-2.94c14.06-6.12,28.25-11.17,43.9-9.84c4.07,0.27,8.38,0.45,12.09,1.99
					c9.37,3.75,18.73,8.21,21.81,18.77c1.62,5.32,1.82,11.33,1.33,17.04c-0.46,5.41-2.69,10.66-4.15,16.03
					c-1.75,6.48-7.05,10.36-11.4,14.86c-2.27,2.57-4.53,5.14-7.01,7.51c-1.24,1.19-2.65,2.3-4.04,3.11
					c-6.43,3.89-12.95,7.54-19.37,11.43c-0.82,0.46-1.49,1.28-1.87,2.13c-3.62,6.77-11.88,8.11-17.15,2.5
					c-1.67-1.76-3.19-3.87-4.29-5.99c-1.27-2.2-1.8-4.68-2.78-6.85C342.15,219.28,338.37,211.68,334.96,203.94z M392.53,197.61
					c3.8-5.57,4.62-12.25,6.71-18.58c0.87-2.88-1.55-9.17-3.77-10.15c-6.83-3.03-14.12-4.33-21.38-4.08
					c-9.64,0.32-18.34,3.81-26.24,9.4c-1.21,0.89-1.35,1.65-0.87,2.88c1.77,4.98,3.55,9.95,5.45,14.88
					c0.87,2.63,1.62,5.32,2.99,7.76c2.39,4.74,5.2,9.46,7.72,14.15c2.88,5.26,2.83,5.14,8.08,2.97
					C380.93,212.69,387.13,205.63,392.53,197.61z"/>
			</g>
			<g>
				<path d="M233,356.23c7.39-2.61,14.82-5.11,22.06-8.13c2.21-0.93,4.19-1.54,6.61-1.27c2.18,0.24,3.62,1.33,4.75,3.12
					c3.58,5.64-0.18,13.05-6.65,14.05c-4.59,0.76-8.9,2.59-13.37,4c-1.37,0.39-2.72,1.12-4.01,1.71c-3.19,1.41-6.83,1.94-9.35,4.84
					c-0.63,0.81-1.97,0.96-2.95,1.43c-1.62,0.95-3.56,1.66-4.97,2.87c-4.57,3.66-11.43,2.35-13.36-3.2
					c-1.97-5.65-3.63-11.42-5.08-17.26c-3.02-12.92-8.12-25.19-12.67-37.54c-1.05-2.86-1.86-5.69-0.23-8.5
					c1.34-2.35,2.51-4.52,5.64-4.51c3.34-0.07,5.46,1.59,6.78,4.23c1.43,2.95,2.7,6.08,3.83,9.14c3.3,8.64,6.5,17.32,9.53,26.18
					c1.25,3.71,1.93,7.75,3.18,12.4C226.52,358.5,229.73,357.44,233,356.23z"/>
				<path d="M256.57,303.13c-1.11-3.65-0.63-7.07,1.61-10.1c1.45-2.04,2.9-4.08,5.64-3.58c2.91,0.67,5.77,1.82,6.98,5.08
					c1.37,4.02,2.59,7.98,4.16,11.92c2.5,6.15,5.17,12.13,7.77,18.25c0.89,2.11,1.68,4.25,2.51,6.5c0.53,1.43,0.89,3.04,1.82,4.32
					c2.74,3.98,1.55,7.66-0.09,11.4c-1.38,3.18-4.81,3.63-7.4,3.54c-2.24-0.1-4.57-2.03-6.45-3.65c-1.56-1.4-2.65-3.43-3.41-5.47
					c-2.39-5.85-4.5-11.91-6.68-17.83l-0.1,0.04C260.75,316.67,258.61,309.92,256.57,303.13z"/>
				<path d="M324.92,337.56c-0.41,0.15-0.96,0.24-1.19,0.55c-1.97,3.16-5.32,2.89-7.92,3.38c-2.8,0.57-5.57-0.96-6.87-3.85
					c-2.32-4.71-4.36-9.64-6.61-14.49c-3.59-7.84-7.17-15.68-10.86-23.49c-1.87-3.83-4.06-7.55-5.73-11.46
					c-1.57-3.94,0.98-9.29,5.15-10.25c5.43-1.31,9.95-4.48,14.75-7.17c5.05-2.67,10.24-4.93,15.84-6.42
					c5.7-1.52,10.6-0.19,15.64,1.54c6.23,2.11,7.18,7.21,5.4,13.09c-0.66,1.98-1.67,3.98-2.75,5.77c-0.81,1.57-0.48,2.15,1.13,2.13
					c1.38-0.04,2.75-0.09,4,0.15c6.9,1.4,12.48,4.91,16.79,10.63c2.97,3.66,2.25,7.99,1.38,12.25c-0.85,3.68-2.89,6.63-5.73,9.3
					c-4.65,4.38-9.49,8.25-14.93,11.42c-1.42,0.87-3.05,1.47-4.61,2.28l-0.04-0.1L324.92,337.56z M317.53,277.19
					c-0.58,0.33-1.23,0.45-1.76,0.88c-2.94,1.78-5.78,3.52-8.54,5.47c-2.22,1.52-2.49,3-1.24,5.44c0.98,1.73,1.97,3.45,3.09,5.24
					c1.12,1.79,1.71,1.81,3.49,0.34c2.42-1.93,4.98-3.81,7.32-5.94c3.11-2.89,6.08-5.84,9.02-8.89c1.81-1.71,1.42-3.07-0.92-3.14
					c-3.41-0.13-6.88,0.21-10.32,0.32C317.59,277.05,317.63,277.16,317.53,277.19z M333.36,320.18c3.25-1.89,6.67-3.62,9.8-5.81
					c1.75-1.23,3.1-3.23,4.25-5.16c1.34-2.35,0.45-4.46-2.06-5.27c-0.66-0.22-1.3-0.68-1.99-1c-1.78-0.74-3.62-1.33-5.77-0.54
					c-1.43,0.53-3.16,0.24-4.67,0.56c-2.05,0.41-4.7,0.46-6.03,1.88c-2.1,2.17-4.4,3.48-7.08,4.7c-2.17,1.03-2.64,2.6-1.53,4.97
					c1.04,2.52,2.39,4.92,3.54,7.4c0.59,1.29,1.35,1.47,2.68,0.98l8.68-3.2L333.36,320.18z"/>
				<path d="M409.34,249.4c-10.85-1.11-21.17,0.15-29.48,8.43c-1.37,1.32-3.16,2.44-4.42,4.06c-1.89,2.43-1.17,4.37,1.96,4.38
					c5.2-0.06,10.45-0.6,15.55-1.55c4.79-0.84,9.54-2.12,14.21-3.61c11.38-3.73,19.84,1.27,27.34,9.06
					c7.33,7.62,6.2,17.78-1.82,26.53c-7.02,7.69-15.33,12.84-25.92,13.38c-6.84,0.32-13.64-1.47-18.42-6.55
					c-1.67-1.7-1.81-6.17-0.75-8.65c0.73-2.12,4.1-3.36,7.2-2.19c4.84,1.81,9.68,3.62,14.94,2.15c5.22-1.57,9.72-4.16,13.13-8.43
					c1.76-2.16,1.83-4.15-0.57-6.28c-4.4-4.06-9-5.85-15.11-4.18c-9.25,2.6-18.56,5.33-27.96,6.59
					c-8.16,1.15-15.49-3.34-18.05-11.21c-2.47-7.33-0.66-13.44,4.65-18.53c6.31-6.15,12.56-12.17,21.18-15.23
					c7.02-2.35,14.35-3.55,21.43-2.91c4.31,0.38,8.65,3.65,12.25,6.5c2.61,2.05,1.55,5.46-1.89,9.97
					C415.68,250.54,412.58,249.71,409.34,249.4z"/>
			</g>
		</g>
		<g>
			
				<rect x="433.63" y="118.38" transform="matrix(0.8487 0.5288 -0.5288 0.8487 219.744 -196.9782)" class="st16" width="41.09" height="334.46"/>
			
				<rect x="435.19" y="112.95" transform="matrix(0.8487 0.5288 -0.5288 0.8487 215.5524 -193.1895)" class="st17" width="20.54" height="334.46"/>
			<g>
				<polygon class="st18" points="383.18,438.41 348.3,416.68 335.38,456.84 352.82,467.71 				"/>
				<polygon class="st19" points="352.82,467.71 335.38,456.84 322.46,497 				"/>
			</g>
			
				<rect x="527.81" y="123.62" transform="matrix(0.8487 0.5288 -0.5288 0.8487 154.062 -269.6439)" class="st19" width="41.09" height="21.7"/>
			
				<rect x="536.05" y="116.5" transform="matrix(0.8487 0.5288 -0.5288 0.8487 148.3128 -276.0043)" class="st20" width="41.09" height="9.48"/>
			<path class="st21" d="M591.66,87.82l-20.53-12.79c-3.96-2.47-9.17-1.26-11.64,2.7l-17.83,28.62l34.87,21.73l17.83-28.62
				C596.84,95.5,595.63,90.29,591.66,87.82z"/>
		</g>
	</g>
</g>
</svg>
